<?xml version="1.0" encoding="UTF-8" standalone="no"?>
<svg
   xmlns:osb="http://www.openswatchbook.org/uri/2009/osb"
   xmlns:dc="http://purl.org/dc/elements/1.1/"
   xmlns:cc="http://creativecommons.org/ns#"
   xmlns:rdf="http://www.w3.org/1999/02/22-rdf-syntax-ns#"
   xmlns:svg="http://www.w3.org/2000/svg"
   xmlns="http://www.w3.org/2000/svg"
   width="210mm"
   height="297mm"
   viewBox="0 0 744.09448819 1052.3622047"
   id="svg2"
   version="1.1">
  <defs
     id="defs4">
    <pattern
       id="Strips1_1"
       patternTransform="translate(0,0) scale(10,10)"
       height="1"
       width="2"
       patternUnits="userSpaceOnUse">
      <rect
         id="rect4913"
         height="2"
         width="1"
         y="-0.5"
         x="0"
         style="fill:black;stroke:none" />
    </pattern>
    <linearGradient
       id="linearGradient5628"
       osb:paint="solid">
      <stop
         style="stop-color:#ff6600;stop-opacity:1;"
         offset="0"
         id="stop5630" />
    </linearGradient>
  </defs>
  <metadata
     id="metadata7">
    <rdf:RDF>
      <cc:Work
         rdf:about="">
        <dc:format>image/svg+xml</dc:format>
        <dc:type
           rdf:resource="http://purl.org/dc/dcmitype/StillImage" />
        <dc:title></dc:title>
      </cc:Work>
    </rdf:RDF>
  </metadata>
  <g
     id="layer1">
    <rect
       style="fill:#dcea00;fill-opacity:1;stroke:#0000ff;stroke-width:1.71744061;stroke-miterlimit:4;stroke-dasharray:none;stroke-opacity:1"
       id="rect4136"
       width="94.568275"
       height="60.916344"
       x="231.28729"
       y="366.75916" />
    <g
       id="g4140"
       style="fill:url(#Strips1_1);fill-opacity:1.0;stroke:#cd00ff;stroke-width:2;stroke-miterlimit:4;stroke-dasharray:none;stroke-opacity:1">
      <path
         id="path4152"
         style="fill:url(#Strips1_1);fill-rule:evenodd;stroke:#cd00ff;stroke-width:1px;stroke-linecap:butt;stroke-linejoin:round;stroke-opacity:1;fill-opacity:1.0"
         d="m 282.54922,409.25108 42.00999,-20.97918 0,20.95606 -42.00999,17.42702 z"
         points="324.55921,388.2719 324.55921,409.22796 282.54922,426.65498 282.54922,409.25108 " />
      <path
         id="path4142"
         style="fill:url(#Strips1_1);fill-rule:evenodd;stroke:#cd00ff;stroke-width:1px;stroke-linecap:butt;stroke-linejoin:round;stroke-opacity:1;fill-opacity:1.0"
         d="m 232.33509,395.47144 0,19.73704 50.21413,11.4465 0,-17.4039 z"
         points="232.33509,415.20848 282.54922,426.65498 282.54922,409.25108 232.33509,395.47144 " />
      <path
         id="path4144"
         style="fill:url(#Strips1_1);fill-rule:evenodd;stroke:#cd00ff;stroke-width:1px;stroke-linecap:butt;stroke-linejoin:round;stroke-opacity:1;fill-opacity:1.0"
         d="m 232.33509,395.47144 37.03235,-27.74013 55.19177,20.54059 -42.00999,20.97918 z"
         points="269.36744,367.73131 324.55921,388.2719 282.54922,409.25108 232.33509,395.47144 " />
      <path
         id="path4150"
         style="fill:url(#Strips1_1);fill-rule:evenodd;stroke:#cd00ff;stroke-width:1px;stroke-linecap:butt;stroke-linejoin:round;stroke-opacity:1;fill-opacity:1.0"
         d="m 232.33509,415.20848 37.03235,-23.0432 55.19177,17.06268 -42.00999,17.42702 z"
         points="269.36744,392.16528 324.55921,409.22796 282.54922,426.65498 232.33509,415.20848 " />
      <path
         id="path4148"
         style="fill:url(#Strips1_1);fill-rule:evenodd;stroke:#cd00ff;stroke-width:1px;stroke-linecap:butt;stroke-linejoin:round;stroke-opacity:1;fill-opacity:1.0"
         d="m 269.36744,367.73131 0,24.43397 55.19177,17.06268 0,-20.95606 z"
         points="269.36744,392.16528 324.55921,409.22796 324.55921,388.2719 269.36744,367.73131 " />
      <path
         id="path4146"
         style="fill:url(#Strips1_1);fill-rule:evenodd;stroke:#cd00ff;stroke-width:1px;stroke-linecap:butt;stroke-linejoin:round;stroke-opacity:1;fill-opacity:1.0"
         d="m 232.33509,395.47144 37.03235,-27.74013 0,24.43397 -37.03235,23.0432 z"
         points="269.36744,367.73131 269.36744,392.16528 232.33509,415.20848 232.33509,395.47144 " />
    </g>
  </g>
</svg>
