<?xml version="1.0" encoding="UTF-8" standalone="no"?>
<!-- Created with Inkscape (http://www.inkscape.org/) -->
<svg id="svg2" xmlns:rdf="http://www.w3.org/1999/02/22-rdf-syntax-ns#" xmlns="http://www.w3.org/2000/svg" height="150" width="150" version="1.1" xmlns:cc="http://creativecommons.org/ns#" xmlns:dc="http://purl.org/dc/elements/1.1/" viewBox="0 0 150 150">
 <metadata id="metadata7">
  <rdf:RDF>
   <cc:Work rdf:about="">
    <dc:format>image/svg+xml</dc:format>
    <dc:type rdf:resource="http://purl.org/dc/dcmitype/StillImage"/>
    <dc:title/>
   </cc:Work>
  </rdf:RDF>
 </metadata>
 <g id="layer1" transform="translate(-76.38 -782.4)">
  <g id="g5046" transform="matrix(.4786 0 0 .4713 80.36 439.7)">
   <g id="g5091">
    <path id="path5670" d="m129.7 727.1a32.94 32.09 0 0 0 -32.94 32.09 32.94 32.09 0 0 0 32.94 32.09 32.94 32.09 0 0 0 32.94 -32.09 32.94 32.09 0 0 0 -32.94 -32.09z"/>
    <path id="path5668" d="m219.7 784.5-32.77 30.22s-20.31-23.83-25.59-28.3c-12.36 15.44-28.75 19.46-48.81 10.86l-33.34 37.13 9.152 48.33 18.03 2.509-7.193-43.33 26.21-25.1 20.91 86.85 31.57 32.43-39.71 40.07 10.06 11.22 57.68-53.16-27.93-36.61 42.6-13.57 49.25 51.15 15.32-15.32-56.62-57.68-50.07 10.64-6.93-41.35 14.33 12.48 48.23-43.3z"/>
    <path id="path4151" d="m59.09 884.8c-12.34 21.79-17.78 37.89-43.67 47.85-25.38 10.55-26.4 37.87-21.32 31.1 13.69-18.26 34.67-4.713 76.29-6.646 46.46 0.4211 46.22 39.31 66.79 48.99 32.32 19.01 44.52-2.873 70.99 23.59 12.62 14.91-5.699 27.69 24.94-3.48 10.82-12.01 60.81-33.78 71.94-57.28-0.004-1.153-24.68 4.378-54.48-9.631-21.21-10.98-31.42-24.5-31.42-24.5-25.52 23.28-47.18 42.72-71.25 64.37l-21.32-23.22 19.51-19.59 19.51-19.59c-5.2-7.4-21.1-21.4-27.9-27.6-22.1-22.1-51.2-10.8-78.51-24.4z"/>
   </g>
  </g>
 </g>
</svg>
