<?xml version="1.0" encoding="UTF-8" standalone="no"?>
<svg
   xmlns:osb="http://www.openswatchbook.org/uri/2009/osb"
   xmlns:dc="http://purl.org/dc/elements/1.1/"
   xmlns:cc="http://creativecommons.org/ns#"
   xmlns:rdf="http://www.w3.org/1999/02/22-rdf-syntax-ns#"
   xmlns:svg="http://www.w3.org/2000/svg"
   xmlns="http://www.w3.org/2000/svg"
   version="1.1"
   id="svg2"
   viewBox="0 0 744.09448819 1052.3622047"
   height="297mm"
   width="210mm">
  <defs
     id="defs4">
    <pattern
       patternUnits="userSpaceOnUse"
       width="2"
       height="1"
       patternTransform="translate(0,0) scale(10,10)"
       id="Strips1_1">
      <rect
         style="fill:black;stroke:none"
         x="0"
         y="-0.5"
         width="1"
         height="2"
         id="rect4913" />
    </pattern>
    <linearGradient
       osb:paint="solid"
       id="linearGradient5628">
      <stop
         id="stop5630"
         offset="0"
         style="stop-color:#ff6600;stop-opacity:1;" />
    </linearGradient>
  </defs>
  <metadata
     id="metadata7">
    <rdf:RDF>
      <cc:Work
         rdf:about="">
        <dc:format>image/svg+xml</dc:format>
        <dc:type
           rdf:resource="http://purl.org/dc/dcmitype/StillImage" />
        <dc:title></dc:title>
      </cc:Work>
    </rdf:RDF>
  </metadata>
  <g
     id="layer1">
    <rect
       y="366.75916"
       x="231.28729"
       height="60.916344"
       width="94.568275"
       id="rect4136"
       style="fill:#dcea00;fill-opacity:1;stroke:#0000ff;stroke-width:1.71744061;stroke-miterlimit:4;stroke-dasharray:none;stroke-opacity:1" />
    <g
       style="fill:url(#Strips1_1);fill-opacity:1.0;stroke:#cd00ff;stroke-width:2;stroke-miterlimit:4;stroke-dasharray:none;stroke-opacity:1"
       id="g4140">
      <path
         points="324.55921,388.2719 324.55921,409.22796 282.54922,426.65498 282.54922,409.25108 "
         d="m 282.54922,409.25108 42.00999,-20.97918 0,20.95606 -42.00999,17.42702 z"
         style="fill:url(#Strips1_1);fill-rule:evenodd;stroke:#cd00ff;stroke-width:1px;stroke-linecap:butt;stroke-linejoin:round;stroke-opacity:1;fill-opacity:1.0"
         id="path4152" />
      <path
         points="232.33509,415.20848 282.54922,426.65498 282.54922,409.25108 232.33509,395.47144 "
         d="m 232.33509,395.47144 0,19.73704 50.21413,11.4465 0,-17.4039 z"
         style="fill:url(#Strips1_1);fill-rule:evenodd;stroke:#cd00ff;stroke-width:1px;stroke-linecap:butt;stroke-linejoin:round;stroke-opacity:1;fill-opacity:1.0"
         id="path4142" />
      <path
         points="269.36744,367.73131 324.55921,388.2719 282.54922,409.25108 232.33509,395.47144 "
         d="m 232.33509,395.47144 37.03235,-27.74013 55.19177,20.54059 -42.00999,20.97918 z"
         style="fill:url(#Strips1_1);fill-rule:evenodd;stroke:#cd00ff;stroke-width:1px;stroke-linecap:butt;stroke-linejoin:round;stroke-opacity:1;fill-opacity:1.0"
         id="path4144" />
      <path
         points="269.36744,392.16528 324.55921,409.22796 282.54922,426.65498 232.33509,415.20848 "
         d="m 232.33509,415.20848 37.03235,-23.0432 55.19177,17.06268 -42.00999,17.42702 z"
         style="fill:url(#Strips1_1);fill-rule:evenodd;stroke:#cd00ff;stroke-width:1px;stroke-linecap:butt;stroke-linejoin:round;stroke-opacity:1;fill-opacity:1.0"
         id="path4150" />
      <path
         points="269.36744,392.16528 324.55921,409.22796 324.55921,388.2719 269.36744,367.73131 "
         d="m 269.36744,367.73131 0,24.43397 55.19177,17.06268 0,-20.95606 z"
         style="fill:url(#Strips1_1);fill-rule:evenodd;stroke:#cd00ff;stroke-width:1px;stroke-linecap:butt;stroke-linejoin:round;stroke-opacity:1;fill-opacity:1.0"
         id="path4148" />
      <path
         points="269.36744,367.73131 269.36744,392.16528 232.33509,415.20848 232.33509,395.47144 "
         d="m 232.33509,395.47144 37.03235,-27.74013 0,24.43397 -37.03235,23.0432 z"
         style="fill:url(#Strips1_1);fill-rule:evenodd;stroke:#cd00ff;stroke-width:1px;stroke-linecap:butt;stroke-linejoin:round;stroke-opacity:1;fill-opacity:1.0"
         id="path4146" />
    </g>
  </g>
</svg>
