<svg xmlns="http://www.w3.org/2000/svg" xmlns:xlink="http://www.w3.org/1999/xlink" width="178px" height="306px" version="1.1"><defs/><g transform="translate(0.5,0.5)"><path d="M 1 264 C 1 192 1 156 68.5 156 C 23.5 156 23.5 84 68.5 84 C 113.5 84 113.5 156 68.5 156 C 136 156 136 192 136 264 Z" fill="#c9c9c9" stroke="#000000" stroke-miterlimit="10" pointer-events="none"/><path d="M 11 274 C 11 202 11 166 78.5 166 C 33.5 166 33.5 94 78.5 94 C 123.5 94 123.5 166 78.5 166 C 146 166 146 202 146 274 Z" fill="#c9c9c9" stroke="#000000" stroke-miterlimit="10" pointer-events="none"/><path d="M 21 284 C 21 212 21 176 88.5 176 C 43.5 176 43.5 104 88.5 104 C 133.5 104 133.5 176 88.5 176 C 156 176 156 212 156 284 Z" fill="#ea6b66" stroke="#000000" stroke-miterlimit="10" pointer-events="none"/><path d="M 31 294 C 31 222 31 186 98.5 186 C 53.5 186 53.5 114 98.5 114 C 143.5 114 143.5 186 98.5 186 C 166 186 166 222 166 294 Z" fill="#c9c9c9" stroke="#000000" stroke-miterlimit="10" pointer-events="none"/><path d="M 41 304 C 41 232 41 196 108.5 196 C 63.5 196 63.5 124 108.5 124 C 153.5 124 153.5 196 108.5 196 C 176 196 176 232 176 304 Z" fill="#c9c9c9" stroke="#000000" stroke-miterlimit="10" pointer-events="none"/><path d="M 38 42 L 118 42 L 118 21 L 138 51 L 118 81 L 118 60 L 38 60 Z" fill="#ea6b66" stroke="#000000" stroke-miterlimit="10" transform="rotate(90,88,51)" pointer-events="none"/></g></svg>